<svg xmlns="http://www.w3.org/2000/svg" viewBox="0 0 64 64" width="64" height="64">
  <defs>
    <filter id="wc" x="-20%" y="-20%" width="140%" height="140%">
      <feTurbulence type="fractalNoise" baseFrequency="0.045" numOctaves="4" result="noise"/>
      <feDisplacementMap in="SourceGraphic" in2="noise" scale="2.5"/>
    </filter>
    <radialGradient id="hl" cx="38%" cy="35%" r="50%">
      <stop offset="0%" stop-color="white" stop-opacity="0.45"/>
      <stop offset="100%" stop-color="white" stop-opacity="0"/>
    </radialGradient>
    <radialGradient id="sh" cx="55%" cy="60%" r="55%">
      <stop offset="0%" stop-color="black" stop-opacity="0"/>
      <stop offset="85%" stop-color="black" stop-opacity="0.08"/>
      <stop offset="100%" stop-color="black" stop-opacity="0.15"/>
    </radialGradient>
  </defs>
  <g filter="url(#wc)">
    <!-- Shadow layer -->
    <path d="M55.24,34.00 C54.34,44.81 56.95,39.26 50.47,46.69 C43.99,54.12 48.85,48.96 39.04,52.58 C29.22,56.21 34.91,58.42 25.93,55.75 C16.96,53.09 24.48,54.62 16.60,45.91 C8.73,37.21 6.53,43.74 6.24,34.00 C5.96,24.26 8.19,30.78 15.89,21.57 C23.60,12.36 15.95,14.40 25.52,10.97 C35.09,7.54 28.94,9.52 39.82,13.00 C50.70,16.49 46.55,11.28 52.71,19.68 C58.88,28.08 56.14,23.19 55.24,34.00 Z" fill="black" opacity="0.06"/>
    <!-- Main blob -->
    <path d="M51.34,32.00 C52.26,45.07 60.92,41.63 55.63,49.17 C50.35,56.71 50.28,49.39 38.12,50.84 C25.97,52.29 35.00,55.01 25.25,52.79 C15.49,50.56 19.89,53.59 13.73,45.27 C7.57,36.96 10.01,42.74 9.84,32.00 C9.66,21.26 7.22,27.00 13.30,18.41 C19.37,9.83 14.17,15.51 25.03,10.54 C35.89,5.57 29.13,3.60 40.45,5.99 C51.77,8.37 48.98,6.10 53.33,16.50 C57.69,26.91 50.42,18.93 51.34,32.00 Z" fill="#FFB5C8"/>
    <!-- Depth gradient -->
    <path d="M51.34,32.00 C52.26,45.07 60.92,41.63 55.63,49.17 C50.35,56.71 50.28,49.39 38.12,50.84 C25.97,52.29 35.00,55.01 25.25,52.79 C15.49,50.56 19.89,53.59 13.73,45.27 C7.57,36.96 10.01,42.74 9.84,32.00 C9.66,21.26 7.22,27.00 13.30,18.41 C19.37,9.83 14.17,15.51 25.03,10.54 C35.89,5.57 29.13,3.60 40.45,5.99 C51.77,8.37 48.98,6.10 53.33,16.50 C57.69,26.91 50.42,18.93 51.34,32.00 Z" fill="url(#sh)"/>
    <!-- Highlight -->
    <path d="M44.96,28.00 C45.06,35.30 44.63,31.70 38.25,37.25 C31.86,42.79 36.62,41.64 29.00,41.86 C21.38,42.08 25.49,43.34 19.20,37.80 C12.90,32.26 12.77,35.35 13.26,28.00 C13.76,20.65 14.14,24.47 20.44,19.44 C26.73,14.40 21.97,15.59 29.00,15.41 C36.03,15.24 31.62,13.97 38.00,19.00 C44.38,24.04 44.86,20.70 44.96,28.00 Z" fill="url(#hl)"/>
  </g>
</svg>